<svg width="1200" height="900" viewBox="0 0 1200 900" fill="none" xmlns="http://www.w3.org/2000/svg">
  <rect width="1200" height="900" rx="48" fill="#F7F9FC"/>
  <ellipse cx="690" cy="760" rx="170" ry="34" fill="#D9E2F1"/>
  <ellipse cx="888" cy="768" rx="180" ry="36" fill="#D9E2F1"/>
  <path d="M735 316C786 316 828 358 828 410V520H642V410C642 358 684 316 735 316Z" fill="#18356F"/>
  <path d="M780 276C780 307 756 332 725 332C694 332 670 307 670 276C670 245 694 220 725 220C756 220 780 245 780 276Z" fill="#E1A27F"/>
  <path d="M679 271C691 241 720 220 753 220C764 220 775 222 785 226C773 201 747 184 716 184C678 184 646 216 646 255C646 272 652 288 662 301C664 288 670 278 679 271Z" fill="#1E2030"/>
  <path d="M679 520H792L854 714H739L679 520Z" fill="#F5EFE9"/>
  <path d="M650 520H707L654 714H548L650 520Z" fill="#FBF6F0"/>
  <path d="M769 520H824L937 714H829L769 520Z" fill="#FBF6F0"/>
  <path d="M552 700C568 675 604 665 631 677L726 717C745 725 756 745 753 766L747 815C744 838 724 855 701 855H575C548 855 527 830 531 803L552 700Z" fill="#F0F4FB"/>
  <path d="M826 694C843 672 878 664 904 676L1003 720C1021 728 1033 747 1031 767L1027 814C1024 838 1004 855 980 855H851C825 855 804 832 807 807L826 694Z" fill="#F0F4FB"/>
  <path d="M636 566C656 548 685 550 702 570L741 617C758 635 758 663 742 682L678 759C661 780 630 786 606 773L557 748C529 734 517 701 531 674L636 566Z" fill="#F6F1EB"/>
  <path d="M829 562C847 548 873 547 892 559L1003 630C1029 647 1036 682 1018 707L984 754C968 776 939 784 913 772L815 724C788 711 777 677 791 651L829 562Z" fill="#F6F1EB"/>
  <rect x="576" y="548" width="110" height="140" rx="18" fill="#F3C63D"/>
  <path d="M610 548C610 519 633 496 662 496C691 496 714 519 714 548" stroke="#1C3E82" stroke-width="18" stroke-linecap="round"/>
  <rect x="822" y="474" width="86" height="122" rx="14" fill="#3158A7"/>
  <rect x="842" y="494" width="46" height="82" rx="6" fill="#F6F8FC"/>
</svg>
